# xmcd CD database file
#
# Track frame offsets:
#	150
#	12541
#	25830
#	37503
#	48525
#	62815
#	76033
#	84761
#	96463
#	108587
#	121288
#	136078
#
# Disc length: 1977 seconds
#
# Revision: 0
# Processed by: cddbd v1.5.2PL0 Copyright (c) Steve Scherf et al.
# Submitted via: CDex 1.51
#
DISCID=8b07b70c
DTITLE=Various Artist - Star Power - Country
DYEAR=2002
DGENRE=Country
TTITLE0=Kenny Rogers and The First Edition - Reuben James
TTITLE1=Lynn Anderson - Rose Garden
TTITLE2=Johnny Paycheck - Take This Job and Shove It
TTITLE3=Dolly Parton - It Wasn't God Who Made Honky Tonk Angels
TTITLE4=Mickey Gilley - I'll Make It All Up to You
TTITLE5=Willie Nelson - You'll Always Have Someone
TTITLE6=Waylon Jennings - Love's Gonna Live Here
TTITLE7=Donna Fargo - The Happiest Girl in the Whole U.S.A.
TTITLE8=Red Steagal - Truck Drivin' Mad
TTITLE9=Kitty Wells - Makin' Believe
TTITLE10=Don Gibson - Woman
TTITLE11=Freddy Fender - Before the Next Teardrop Falls
EXTD=YEAR: 2002
EXTT0=
EXTT1=
EXTT2=
EXTT3=
EXTT4=
EXTT5=
EXTT6=
EXTT7=
EXTT8=
EXTT9=
EXTT10=
EXTT11=
PLAYORDER=
